<?xml version="1.0" encoding="utf-8"?>
<!-- Generator: Adobe Illustrator 20.1.0, SVG Export Plug-In . SVG Version: 6.00 Build 0)  -->
<svg version="1.1" id="Layer_1" xmlns="http://www.w3.org/2000/svg" xmlns:xlink="http://www.w3.org/1999/xlink" x="0px" y="0px"
	 viewBox="0 0 130 130" style="enable-background:new 0 0 130 130;" xml:space="preserve">
<style type="text/css">
	.st0{fill:#FFFFFF;}
</style>
<g>
	<path class="st0" d="M65,126c-0.6,0-1-0.4-1-1v-4.6c0-0.6,0.4-1,1-1s1,0.4,1,1v4.6C66,125.6,65.6,126,65,126z"/>
	<path class="st0" d="M65,88c-5.3,0-9.6-4.3-9.6-9.6v-1h19.3v1C74.6,83.7,70.3,88,65,88z M57.4,79.4c0.5,3.7,3.7,6.6,7.6,6.6
		s7.1-2.9,7.6-6.6H57.4z"/>
	<path class="st0" d="M97.9,49.2H32.1c-1.5,0-2.7-1.2-2.7-2.7v-3.5c0-1.5,1.2-2.7,2.7-2.7h65.7c1.5,0,2.7,1.2,2.7,2.7v3.5
		C100.6,48,99.4,49.2,97.9,49.2z M32.1,42.3c-0.4,0-0.7,0.3-0.7,0.7v3.5c0,0.4,0.3,0.7,0.7,0.7h65.7c0.4,0,0.7-0.3,0.7-0.7v-3.5
		c0-0.4-0.3-0.7-0.7-0.7H32.1z"/>
	<path class="st0" d="M65,74.2c-0.4,0-0.7-0.2-0.9-0.5c-0.2-0.5-0.1-1.1,0.4-1.3l3.2-1.6l-3.7-9.8c-0.2-0.5,0.1-1.1,0.6-1.3
		c0.5-0.2,1.1,0.1,1.3,0.6l4.4,11.5l-4.8,2.5C65.3,74.2,65.2,74.2,65,74.2z"/>
	<path class="st0" d="M65,53.6c-7.4,0-14.1-1.7-17.9-4.5l-2.4-1.8h23.9l8.6,4.7l-2.6,0.6C71.6,53.2,68.4,53.6,65,53.6z M51.6,49.2
		c3.5,1.5,8.3,2.3,13.4,2.3c2.2,0,4.4-0.2,6.4-0.5L68,49.2H51.6z"/>
	<g transform="translate(.5.93)">
		<path class="st0" d="M93.9,116.9l-4.3,2.2l0.3,0.6l0.5-0.2v3H91v-3.3l2.9-1.4l2.9,1.4v3.3h0.7v-3l0.5,0.3l0.3-0.6L93.9,116.9"/>
		<path class="st0" d="M92.2,120.3l-0.5,0.4c0,0,0.8,0.9,2.3,0.9c1.4,0,2.2-0.9,2.2-0.9l-0.5-0.4c0,0-0.6,0.7-1.8,0.7
			C92.8,121,92.2,120.3,92.2,120.3"/>
	</g>
	<circle class="st0" cx="52.1" cy="61.6" r="2"/>
	<circle class="st0" cx="77.9" cy="61.6" r="2"/>
	<g>
		<path class="st0" d="M42.1,100.3c-4.7,0.7-9.3,1.8-12.7,3c-6.3,2.2-13.8,7.9-16.8,12.7l-5.3,8.4l0,0c-0.1,0.2-0.2,0.3-0.2,0.5
			c0,0.6,0.4,1,1,1c0.4,0,0.7-0.2,0.8-0.5l0,0l5.3-8.4c2.8-4.4,10-9.9,15.8-11.9c3.1-1.1,7.4-2.1,11.7-2.8L42.1,100.3z"/>
		<path class="st0" d="M122.7,124.5L122.7,124.5l-5.3-8.5c-3-4.8-10.6-10.5-16.8-12.7c-3.4-1.2-8.1-2.3-12.8-3l0.6,2.1
			c4.3,0.7,8.5,1.7,11.6,2.8c5.8,2,13,7.5,15.8,11.9l5.3,8.4l0,0c0.2,0.3,0.5,0.5,0.8,0.5c0.6,0,1-0.4,1-1
			C122.9,124.8,122.8,124.6,122.7,124.5z"/>
	</g>
	<g>
		<polygon class="st0" points="48.7,104.3 48.7,91.4 46.7,89.7 46.7,102.5 		"/>
		<polygon class="st0" points="83.3,102.3 83.3,89.5 81.3,91.1 81.3,104.2 		"/>
	</g>
	<path class="st0" d="M65,121.4c-0.1,0-0.3,0-0.4-0.1L40.5,111c-0.4-0.2-0.7-0.6-0.6-1.1l1.7-11.5c0-0.3,0.2-0.5,0.4-0.7l5.1-3.7
		c0.4-0.3,1.1-0.2,1.4,0.2c0.3,0.4,0.3,1-0.2,1.4c-0.1,0.1-2.2,1.9-1.8,4.3c0.4,2.3,3.2,5.9,14,9.5c0.3,0.1,0.5,0.3,0.6,0.5l4.8,9.9
		c0.2,0.4,0.1,0.8-0.2,1.1C65.5,121.3,65.3,121.4,65,121.4z M42,109.5l21,9l-3.4-7.1c-9.2-3.1-14.2-6.8-14.9-10.9
		c-0.1-0.7-0.1-1.4,0-2l-1.1,0.8L42,109.5z"/>
	<path class="st0" d="M65,121.4c-0.3,0-0.5-0.1-0.7-0.3c-0.3-0.3-0.4-0.7-0.2-1.1l4.8-9.9c0.1-0.2,0.3-0.4,0.6-0.5
		c10.8-3.6,13.6-7.2,14-9.5c0.5-2.5-1.7-4.3-1.8-4.3c-0.4-0.3-0.5-1-0.2-1.4c0.3-0.4,0.9-0.5,1.4-0.2l5.1,3.7
		c0.2,0.2,0.4,0.4,0.4,0.7l1.7,11.5c0.1,0.5-0.2,0.9-0.6,1.1l-24.1,10.3C65.3,121.4,65.1,121.4,65,121.4z M70.5,111.3l-3.4,7.1l21-9
		l-1.6-10.3l-1.1-0.8c0.1,0.6,0.1,1.3,0,2C84.7,104.5,79.6,108.1,70.5,111.3z"/>
	<g>
		<polygon class="st0" points="34.6,38.8 34.6,38.8 34.6,38.8 		"/>
		<path class="st0" d="M37.2,32.8C39,20.2,48.5,10.1,60.5,8.1l0.1-0.9L61.4,6C47.8,7.6,36.9,18.9,35.2,33L37.2,32.8z"/>
		<path class="st0" d="M35,34.7l0.1-1.4C35.1,33.7,35,34.2,35,34.7z"/>
		<path class="st0" d="M69.3,6.7l0.1,1.4c12,2,21.5,12,23.3,24.6l0.9,0.1l1.4,2.1C94,19.9,82.9,7.9,68.8,6L69.3,6.7z"/>
		<path class="st0" d="M96.7,40.4l0.8,1C97.6,40.8,97.2,40.4,96.7,40.4z"/>
		<path class="st0" d="M94.4,41.3c0.5,0.6,1.2,1,2.1,1c0.6,0,1-0.4,1-1H94.4z"/>
		<path class="st0" d="M32.4,41.3c0,0.6,0.4,1,1,1c0.9,0,1.6-0.4,2.1-1H32.4z"/>
		<path class="st0" d="M32.4,41.3l0.2-0.6C32.5,40.9,32.4,41.1,32.4,41.3z"/>
	</g>
	<path class="st0" d="M96.1,42.3H33.9c-0.8,0-1.5-0.3-1.8-0.9c-0.3-0.6-0.3-1.3,0.1-2.1l0.1-0.2l1.4-1c0-1.2,0.1-3.5,0.2-4.2
		c0.1-1.3,1.4-2.3,2.8-2.4l20.5-1.5c0.4,0,0.9-0.5,0.9-0.9l1.5-22.5C59.7,5.2,60.9,4,62.4,4h5.2c1.5,0,2.7,1.2,2.8,2.7l1.5,22.5
		c0,0.4,0.5,0.9,0.9,0.9l20.5,1.5c1.7,0.1,2.9,2.9,2.9,4c0,0.7,0.1,1.8,0.1,2.7l1.4,0.9l0.1,0.2c0.4,0.7,0.5,1.5,0.1,2.1
		C97.6,42,97,42.3,96.1,42.3z M34.1,40.3h61.8l-1.6-1.1l0-0.5c0-0.9-0.1-2.4-0.1-3.2c0-0.5-0.7-1.9-1.1-2l-20.4-1.5
		c-1.5-0.1-2.7-1.3-2.8-2.8L68.4,6.8C68.4,6.4,68,6,67.6,6h-5.2c-0.4,0-0.8,0.4-0.8,0.8l-1.5,22.5c-0.1,1.5-1.3,2.7-2.8,2.8
		l-20.5,1.5c-0.5,0-0.9,0.4-1,0.7c-0.1,0.7-0.2,3.3-0.2,4.5l0,0.5L34.1,40.3z"/>
	<g>
		<path class="st0" d="M93.2,55.8v0.6h-3.3v0.8l1,0c2.3,0,4.2,2.7,4.2,5.9s-1.9,5.9-4.2,5.9l-1,0v4.2c0,11.4-9.3,20.6-20.6,20.6
			h-8.6c-11.4,0-20.6-9.3-20.6-20.6v-4.2l-1,0c-2.3,0-4.2-2.7-4.2-5.9s1.9-5.9,4.2-5.9l1,0v-0.7l-3.4,0.3l0-0.9
			c-2.2,1.2-3.8,4-3.8,7.3c0,3.9,2.2,7.2,5.2,7.8v2.3c0,12.5,10.1,22.6,22.6,22.6h8.6c12.5,0,22.6-10.1,22.6-22.6V71
			c2.9-0.6,5.2-3.9,5.2-7.8C97.1,59.9,95.5,57,93.2,55.8z"/>
		<polygon class="st0" points="40.8,49.2 85.3,49.2 84.2,48.3 91.9,48.3 91.9,47.2 38.1,47.2 38.1,48.4 40.8,48.4 		"/>
	</g>
	<path class="st0" d="M94.5,57.6h-6.3v-5.2l-9.5-5.2h15.8V57.6z M90.2,55.6h2.3v-6.3h-6l3.7,2V55.6z"/>
	<path class="st0" d="M41.8,57.6h-6.3V47.2h6.3V57.6z M37.5,55.6h2.3v-6.3h-2.3V55.6z"/>
</g>
</svg>
